<svg width="111" height="31" viewBox="0 0 111 31" fill="none" xmlns="http://www.w3.org/2000/svg">
<g clip-path="url(#clip0_107_3)">
<path d="M0 8.62315H21.0962C21.8753 8.62386 22.507 9.25177 22.507 10.0264C22.507 10.8014 21.8746 11.4296 21.0951 11.4296H0V19.8485H0.000349222V22.5769H0V30.9958H30.9948V22.5769H9.89935C9.11995 22.5766 8.48783 21.9487 8.48783 21.1737C8.48783 20.5542 8.89433 20.0346 9.45485 19.8485H30.9948V11.4296H30.9944V8.62315H30.9948V0.204199H0V8.62315Z" fill="white"/>
<path d="M64.647 17.4173H62.3833L58.7912 24.1151L55.1995 17.4173H52.9536V19.5886L57.1083 27.2527L55.0957 31H58.457L64.647 19.5886V17.4173Z" fill="white"/>
<path d="M70.6335 20.8765L73.3344 28.0884H67.9326L70.6335 20.8765ZM72.3412 17.4173H71.9291H69.3379H68.9136L64.7372 28.0884H62.9419V31H78.337V28.0884H76.4934L72.3412 17.4173Z" fill="white"/>
<path d="M48.5613 27.9614C48.4208 28.0617 48.2605 28.129 48.0814 28.1606C47.9857 28.1818 47.8851 28.1846 47.773 28.1846H44.4282V25.3341H47.773C47.8754 25.3341 47.9798 25.3469 48.0951 25.3722C48.264 25.4049 48.4181 25.4694 48.5571 25.5676C48.9677 25.8332 49.2129 26.2805 49.2129 26.7654C49.2129 27.2457 48.9706 27.6921 48.5613 27.9614ZM47.7835 22.5398L44.4282 22.5405V20.1887H50.2382V17.4086H44.4282H43.4616H41.4424V30.9872H43.0655V30.9917H47.7549C50.1 30.9917 52.0077 29.096 52.0077 26.7654C52.0077 24.4608 50.1205 22.5655 47.7835 22.5398Z" fill="white"/>
<path d="M85.1142 3.1782V0.183667H74.3574V3.1782H78.172H78.2293V13.7664H81.2424V3.1782H81.301H85.1142Z" fill="white"/>
<path d="M63.8671 11.786L69.2483 6.3772V13.772H72.2638V0.189195H69.2483V2.26092L63.8671 7.65789V0.189195H60.8516V13.772H63.8671V11.786Z" fill="white"/>
<path d="M92.1527 0.165601H89.1236L84.668 11.5249V13.7483H87.0566L90.8519 3.63975L94.647 13.7483H97.0492V11.6579L92.5666 0.165601H92.1527Z" fill="white"/>
<path d="M58.7121 13.772V11.5451L54.5543 6.32584L58.3104 2.52819V0.188925H56.5427L51.6013 5.16279V0.189548H48.586V5.19504L43.6117 0.189548H41.845V2.52881L45.6002 6.32478L41.4424 11.5451L41.4462 13.772H43.558L47.6931 8.42876L48.586 9.32588V13.772H51.6013V9.29399L52.462 8.42876L56.5972 13.772H58.7121Z" fill="white"/>
<path d="M104.381 10.9205C102.436 10.9205 100.88 9.37428 100.88 6.95692C100.88 4.53956 102.436 2.99373 104.381 2.99373C106.327 2.99373 107.882 4.53956 107.882 6.95692C107.882 9.37428 106.327 10.9205 104.381 10.9205ZM104.381 -0.0035553C100.705 -0.0035553 97.7676 2.87743 97.7676 6.95692C97.7676 11.0368 100.705 13.9175 104.381 13.9175C108.058 13.9175 110.996 11.0368 110.996 6.95692C110.996 2.87743 108.058 -0.0035553 104.381 -0.0035553Z" fill="white"/>
</g>
<defs>
<clipPath id="clip0_107_3">
<rect width="111" height="31" fill="white"/>
</clipPath>
</defs>
</svg>
