<svg width="181" height="103" viewBox="0 0 181 103" fill="none" xmlns="http://www.w3.org/2000/svg">
<g clip-path="url(#clip0_13_439)">
<path d="M0.428223 102.298V71.9878H9.95461C13.3048 71.9878 16.2189 72.6235 18.7014 73.8949C21.184 75.1663 23.1189 76.9343 24.5017 79.1987C25.8891 81.4631 26.5805 84.1127 26.5805 87.1428C26.5805 90.1728 25.8891 92.8224 24.5017 95.0868C23.1143 97.3513 21.184 99.1192 18.7014 100.391C16.2189 101.662 13.3048 102.298 9.95461 102.298H0.428223ZM9.95461 73.0272H3.37477V101.258H9.95461C14.1401 101.258 17.4068 100.019 19.764 97.5369C22.1166 95.0544 23.2953 91.5881 23.2953 87.1428C23.2953 82.6974 22.1166 79.2312 19.764 76.7487C17.4114 74.2661 14.1401 73.0226 9.95461 73.0226V73.0272Z" fill="#F2EEE9"/>
<path d="M44.334 102.298V71.9878H57.5401V74.1084L49.9626 73.1107C48.6355 72.939 47.7399 72.8509 47.2759 72.8509V86.057C47.6517 86.057 48.5473 86.0152 49.9626 85.927L57.0621 85.4955V87.4861L49.9626 87.0546C48.5473 86.9664 47.6517 86.9247 47.2759 86.9247V101.43C47.7956 101.43 48.7051 101.342 50.0043 101.17L57.67 100.173V102.293H44.334V102.298Z" fill="#F2EEE9"/>
<path d="M72.7832 101.348L73.0431 98.7492H73.3029C74.4305 99.7329 75.6973 100.494 77.1125 101.046C78.5278 101.594 79.9292 101.867 81.3119 101.867C83.2748 101.867 84.8617 101.324 86.0775 100.243C87.2932 99.1621 87.8964 97.7097 87.8964 95.8908C87.8964 94.8792 87.6737 93.9419 87.2236 93.0742C86.7735 92.2064 86.0403 91.3294 85.0148 90.4339C83.9893 89.5383 82.5834 88.5731 80.7922 87.5337C79.5487 86.8145 78.3654 86.0535 77.2425 85.26C76.1149 84.4665 75.1915 83.5431 74.4723 82.4898C73.7484 81.4365 73.3911 80.1743 73.3911 78.7034C73.3911 76.5086 74.1846 74.7406 75.7715 73.3996C77.3585 72.0586 79.4512 71.3857 82.0497 71.3857C83.2052 71.3857 84.4441 71.5064 85.7758 71.7523C87.1029 71.9983 88.1284 72.3091 88.8523 72.685L88.6342 75.1118H88.3744C86.7271 73.3207 84.6204 72.4252 82.0544 72.4252C80.2076 72.4252 78.7181 72.8938 77.5951 73.8311C76.4675 74.7685 75.9061 76.0306 75.9061 77.6176C75.9061 78.8008 76.217 79.817 76.8388 80.6708C77.4606 81.5246 78.2587 82.2903 79.2424 82.9677C80.2215 83.6452 81.2795 84.3041 82.4024 84.9398C83.7017 85.6916 84.9638 86.485 86.1888 87.3203C87.4138 88.1602 88.4254 89.1624 89.2189 90.3318C90.0124 91.5011 90.4114 92.9674 90.4114 94.7261C90.4114 96.3455 90.0356 97.7654 89.2839 98.9904C88.5321 100.22 87.4695 101.176 86.1007 101.872C84.7272 102.563 83.1356 102.911 81.3166 102.911C80.1612 102.911 78.8062 102.768 77.2471 102.48C75.688 102.192 74.2031 101.816 72.7878 101.352L72.7832 101.348Z" fill="#F2EEE9"/>
<path d="M107.594 102.298V71.9878H110.541V102.298H107.594Z" fill="#F2EEE9"/>
<path d="M130.456 71.9878H136.261C139.319 71.9878 141.695 72.6328 143.384 73.9135C145.073 75.1988 145.918 76.9946 145.918 79.3054C145.918 81.0966 145.389 82.5814 144.335 83.7647C143.282 84.9479 141.76 85.7414 139.765 86.1451V86.405C141.672 86.7808 143.231 87.6764 144.442 89.0917C145.653 90.5069 146.563 92.2517 147.17 94.3305C147.718 96.2376 148.261 97.7132 148.794 98.7665C149.328 99.8199 149.922 100.576 150.572 101.04C151.221 101.504 151.992 101.834 152.887 102.038V102.298H151.11C149.839 102.298 148.794 102.066 147.969 101.606C147.147 101.147 146.447 100.367 145.866 99.2677C145.286 98.1726 144.739 96.6552 144.219 94.7203C143.384 91.7459 142.27 89.6392 140.883 88.4003C139.495 87.1613 137.806 86.5395 135.816 86.5395H135.556V85.76H135.816C140.465 85.76 142.785 83.6255 142.785 79.3518C142.785 75.0782 140.604 73.0318 136.247 73.0318H133.389V102.302H130.442V71.9924L130.456 71.9878Z" fill="#F2EEE9"/>
<path d="M166.915 102.298V71.9878H180.121V74.1084L172.544 73.1107C171.217 72.939 170.321 72.8509 169.857 72.8509V86.057C170.233 86.057 171.128 86.0152 172.544 85.927L179.643 85.4955V87.4861L172.544 87.0546C171.128 86.9664 170.233 86.9247 169.857 86.9247V101.43C170.377 101.43 171.286 101.342 172.585 101.17L180.251 100.173V102.293H166.915V102.298Z" fill="#F2EEE9"/>
<path d="M150.233 49.2476C148.711 49.0017 147.189 48.7372 145.658 48.547L136.452 47.6978L131.849 47.2709C130.313 47.141 128.772 47.0574 127.236 46.9461L118.012 46.3243C116.476 46.2036 114.935 46.1526 113.395 46.083L108.778 45.8835C102.639 45.554 96.495 45.4983 90.3513 45.373C90.3513 45.373 90.3513 45.373 90.3467 45.373C90.3467 45.373 90.3467 45.373 90.342 45.373C84.1984 45.503 78.0501 45.5587 71.9157 45.8835L67.2987 46.083C65.7581 46.1526 64.2176 46.2036 62.6816 46.3243L53.4569 46.9461C51.921 47.0574 50.3804 47.141 48.8445 47.2709L44.2414 47.6978L35.0352 48.547C33.5039 48.7372 31.9865 49.0017 30.4599 49.2476L25.8939 49.9901C22.8499 50.4773 19.8106 50.9831 16.7759 51.5121C22.9335 51.1501 29.0632 50.584 35.2069 50.2267L44.3899 49.3776L48.979 48.9553C50.5103 48.83 52.0462 48.7418 53.5775 48.6351L62.7791 48.0133C64.3104 47.8927 65.8463 47.8416 67.3822 47.7767L71.9899 47.5772C78.1057 47.2477 84.2308 47.1967 90.3513 47.0667C96.4718 47.1967 102.597 47.2477 108.713 47.5772L113.32 47.7767C114.856 47.8463 116.392 47.8973 117.924 48.0133L127.125 48.6351C128.656 48.7418 130.192 48.83 131.724 48.9553L136.313 49.3776L145.496 50.2267C151.639 50.584 157.764 51.1455 163.927 51.5121C160.892 50.9877 157.853 50.4773 154.809 49.9901L150.243 49.2476H150.233Z" fill="#F2EEE9"/>
<path d="M48.5663 31.0254L51.7588 33.1135L48.8958 30.5939L46.9747 28.9373L51.3598 28.6914C53.2112 28.5058 55.0534 28.2134 56.9095 28.0603L62.4685 27.5452L65.2479 27.29C66.176 27.2111 67.104 27.1601 68.0321 27.0951L73.6004 26.7193C75.4564 26.5893 77.3172 26.5476 79.1733 26.4548C82.8901 26.2552 86.6115 26.2228 90.333 26.1439H90.3516C94.073 26.2228 97.7945 26.2552 101.511 26.4548C103.367 26.5476 105.228 26.5893 107.084 26.7193L112.652 27.0951C113.581 27.1601 114.509 27.2111 115.437 27.29L118.216 27.5452L123.775 28.0603C125.631 28.2181 127.469 28.5058 129.325 28.6914L133.71 28.9373L131.789 30.5939L128.926 33.1135L132.118 31.0254L135.288 28.9094L136.299 28.2366L135.051 28.0092L129.529 27.0116C128.606 26.8585 127.673 26.8121 126.745 26.6821C125.817 26.5754 124.889 26.4548 123.956 26.3805L118.374 25.8655L115.58 25.6056C114.648 25.5267 113.715 25.4757 112.782 25.4107L107.186 25.0349C105.321 24.9049 103.451 24.8585 101.586 24.7704C97.8502 24.5708 94.1101 24.5384 90.3748 24.4595H90.3237C86.5837 24.5384 82.8437 24.5708 79.1129 24.7704C77.2476 24.8632 75.3776 24.9096 73.5122 25.0349L67.9161 25.4107C66.9834 25.4757 66.0507 25.5267 65.118 25.6056L62.3246 25.8655L56.7424 26.3805C55.8097 26.4548 54.8817 26.5754 53.9536 26.6821C53.0256 26.8074 52.0929 26.8538 51.1695 27.0116L45.6476 28.0092L44.3994 28.2366L45.411 28.9094L48.5803 31.0254H48.5663Z" fill="#F2EEE9"/>
<path d="M51.9862 20.0614L54.9281 21.9592L52.311 19.6298L50.6359 18.1682L54.5661 17.9686C56.2645 17.8016 57.9535 17.5325 59.6565 17.3886L64.7561 16.9153L67.3082 16.6787L69.8603 16.4977L74.9692 16.1543C76.6722 16.0383 78.3798 15.9965 80.0828 15.913C83.4933 15.732 86.9085 15.6996 90.3191 15.63H90.3423C93.7575 15.6996 97.1681 15.732 100.579 15.913C102.282 15.9965 103.989 16.0383 105.692 16.1543L110.801 16.4977L113.353 16.6787L115.905 16.9153L121.005 17.3886C122.708 17.5278 124.397 17.8016 126.095 17.9686L130.025 18.1682L128.35 19.6298L125.733 21.9592L128.675 20.0614L131.594 18.1357L132.605 17.4675L131.353 17.2355L126.285 16.2935C125.441 16.145 124.578 16.1125 123.729 15.9919C122.875 15.8945 122.026 15.7831 121.172 15.7135L116.049 15.2402L113.488 15.0035L110.922 14.8226L105.785 14.4745C104.073 14.3585 102.356 14.3121 100.644 14.2286C97.2145 14.043 93.7807 14.0152 90.3516 13.9409H90.2959C86.8621 14.0152 83.433 14.043 80.0039 14.2286C78.2916 14.3121 76.5747 14.3539 74.8625 14.4745L69.7258 14.8226L67.1597 15.0035L64.5983 15.2402L59.4755 15.7135C58.6217 15.7831 57.7679 15.8945 56.9187 15.9919C56.0696 16.1079 55.2111 16.145 54.362 16.2935L49.2949 17.2355L48.042 17.4675L49.0536 18.1357L51.9723 20.0614H51.9862Z" fill="#F2EEE9"/>
<path d="M67.6376 12.2096C66.8766 11.4625 66.111 10.7247 65.3407 9.99156L67.4427 9.95444C68.5332 9.84771 69.6144 9.67138 70.7048 9.58322L73.9715 9.2816C75.0574 9.17488 76.1478 9.08207 77.2429 9.01711L80.5143 8.79438C81.6047 8.72014 82.6998 8.6923 83.7903 8.63661C85.9758 8.52061 88.1613 8.50205 90.3469 8.45564C92.5324 8.50205 94.718 8.52061 96.9035 8.63661C97.994 8.6923 99.0891 8.7155 100.18 8.79438L103.451 9.01711C104.541 9.08207 105.632 9.17488 106.722 9.2816L109.989 9.58322C111.079 9.67138 112.161 9.84771 113.251 9.95444L115.353 9.99156C114.583 10.7247 113.817 11.4625 113.056 12.2096C114.36 11.4579 115.65 10.6876 116.935 9.91267L117.998 9.27232L116.689 8.98463L113.451 8.27467C112.908 8.16795 112.355 8.16795 111.808 8.08443C111.26 8.01946 110.713 7.94986 110.165 7.90346L106.875 7.60184C105.78 7.49512 104.681 7.39767 103.581 7.33271L100.282 7.10998C99.1819 7.03573 98.0775 7.00789 96.9778 6.95221C94.7783 6.8362 92.5742 6.813 90.3701 6.7666H90.333C88.1289 6.813 85.9248 6.83156 83.7253 6.95221C82.6256 7.00789 81.5212 7.03109 80.4215 7.10998L77.1223 7.33271C76.0225 7.39767 74.9228 7.49512 73.8277 7.60184L70.5378 7.90346C69.9902 7.94986 69.4427 8.01946 68.8951 8.08443C68.3522 8.16795 67.7954 8.16795 67.2525 8.27467L64.0136 8.98463L62.7051 9.27232L63.7677 9.91267C65.053 10.6876 66.343 11.4579 67.6469 12.2096H67.6376Z" fill="#F2EEE9"/>
<path d="M44.3806 38.9972L48.9698 38.5749C50.501 38.4496 52.0369 38.3615 53.5682 38.2548L62.7698 37.633C64.3011 37.5123 65.837 37.4613 67.3729 37.3963L71.9806 37.1968C78.0965 36.8673 84.2216 36.8163 90.342 36.6864C96.4625 36.8116 102.588 36.8673 108.703 37.1968L113.311 37.3963C114.847 37.4659 116.383 37.517 117.914 37.633L127.116 38.2548C128.647 38.3615 130.183 38.4496 131.714 38.5749L136.303 38.9972L145.486 39.8464C151.63 40.2036 157.755 40.7651 163.917 41.1317C160.883 40.6073 157.843 40.0969 154.799 39.6097L150.233 38.8673C148.711 38.6213 147.189 38.3568 145.658 38.1666L136.452 37.3174L131.849 36.8905C130.313 36.7606 128.772 36.6771 127.236 36.5657L118.012 35.9439C116.476 35.8233 114.935 35.7722 113.395 35.7026L108.778 35.5031C102.639 35.1736 96.4949 35.118 90.3513 34.9927C90.3513 34.9927 90.3513 34.9927 90.3467 34.9927C90.3467 34.9927 90.3467 34.9927 90.342 34.9927C84.1984 35.1226 78.0501 35.1783 71.9157 35.5031L67.2987 35.7026C65.7581 35.7722 64.2175 35.8233 62.6816 35.9439L53.4569 36.5657C51.9209 36.6724 50.3804 36.7606 48.8445 36.8905L44.2414 37.3174L35.0352 38.1666C33.5039 38.3568 31.9865 38.6213 30.4599 38.8673L25.8939 39.6097C22.8499 40.0969 19.8106 40.6027 16.7759 41.1317C22.9335 40.7698 29.0632 40.2036 35.2069 39.8464L44.3899 38.9972H44.3806Z" fill="#F2EEE9"/>
<path d="M100.875 0.613486C99.7058 0.511401 98.5365 0.372195 97.3625 0.302591C95.0284 0.126263 92.6898 0.0334581 90.3465 0.000976562C90.3465 0.000976562 90.3465 0.000976562 90.3418 0.000976562C90.3418 0.000976562 90.3418 0.000976562 90.3372 0.000976562C87.9939 0.0334581 85.6552 0.126263 83.3212 0.307231C82.1472 0.376835 80.9779 0.516042 79.8085 0.618127C78.667 0.998625 77.5348 1.39304 76.4165 1.86635C77.6183 2.06588 78.8016 2.16332 79.9802 2.29789C81.1356 2.20044 82.2864 2.06124 83.4418 1.99163C85.7387 1.8153 88.0403 1.72714 90.3372 1.69002C92.6387 1.7225 94.9403 1.8153 97.2326 1.99163C98.388 2.06124 99.5387 2.1958 100.694 2.29789C101.873 2.16332 103.056 2.06588 104.258 1.86635C103.144 1.39304 102.012 0.998625 100.866 0.618127L100.875 0.613486Z" fill="#F2EEE9"/>
</g>
<defs>
<clipPath id="clip0_13_439">
<rect width="179.827" height="102.906" fill="white" transform="translate(0.428223)"/>
</clipPath>
</defs>
</svg>
