<svg width="187" height="21" viewBox="0 0 187 21" fill="none" xmlns="http://www.w3.org/2000/svg">
<path d="M70.458 20.0245V0.390625H76.5867C78.742 0.390625 80.6167 0.802418 82.2138 1.62601C83.8109 2.44959 85.0557 3.5948 85.9453 5.06162C86.8379 6.52845 87.2827 8.24476 87.2827 10.2075C87.2827 12.1703 86.8379 13.8866 85.9453 15.3534C85.0528 16.8203 83.8109 17.9655 82.2138 18.7891C80.6167 19.6127 78.742 20.0245 76.5867 20.0245H70.458ZM76.5867 1.06392H72.3536V19.3512H76.5867C79.2793 19.3512 81.3809 18.5486 82.8974 16.9405C84.4109 15.3324 85.1692 13.0871 85.1692 10.2075C85.1692 7.32799 84.4109 5.08266 82.8974 3.47456C81.3839 1.86647 79.2793 1.06091 76.5867 1.06091V1.06392Z" fill="#625D5B"/>
<path d="M98.7041 20.0245V0.390625H107.2V1.76427L102.325 1.11803C101.471 1.00681 100.895 0.949702 100.597 0.949702V9.50418C100.839 9.50418 101.415 9.47713 102.325 9.42002L106.893 9.14048V10.43L102.325 10.1504C101.415 10.0933 100.839 10.0663 100.597 10.0663V19.4624C100.931 19.4624 101.516 19.4053 102.352 19.294L107.284 18.6478V20.0214H98.7041V20.0245Z" fill="#625D5B"/>
<path d="M117.006 19.4084L117.174 17.7251H117.341C118.066 18.3624 118.881 18.8553 119.792 19.213C120.702 19.5677 121.604 19.745 122.493 19.745C123.756 19.745 124.777 19.3934 125.559 18.693C126.341 17.9927 126.729 17.0518 126.729 15.8736C126.729 15.2183 126.586 14.6111 126.296 14.0491C126.007 13.487 125.535 12.9189 124.875 12.3388C124.216 11.7587 123.311 11.1334 122.159 10.4602C121.359 9.99425 120.598 9.50131 119.875 8.98732C119.15 8.47333 118.556 7.87517 118.093 7.19286C117.627 6.51054 117.397 5.69297 117.397 4.74013C117.397 3.31839 117.908 2.17319 118.929 1.30451C119.95 0.435838 121.296 0 122.968 0C123.711 0 124.508 0.0781531 125.365 0.23746C126.219 0.396767 126.878 0.598153 127.344 0.841622L127.204 2.41365H127.037C125.977 1.25341 124.622 0.673299 122.971 0.673299C121.783 0.673299 120.824 0.976883 120.102 1.58405C119.377 2.19122 119.015 3.0088 119.015 4.03678C119.015 4.80326 119.215 5.46152 119.615 6.01459C120.015 6.56766 120.529 7.06361 121.162 7.50245C121.792 7.9413 122.472 8.36812 123.195 8.77992C124.031 9.26685 124.843 9.78084 125.631 10.3219C126.419 10.8659 127.07 11.5152 127.58 12.2726C128.09 13.0301 128.347 13.9799 128.347 15.1191C128.347 16.1681 128.105 17.0879 127.622 17.8814C127.138 18.678 126.455 19.2972 125.574 19.748C124.69 20.1959 123.666 20.4213 122.496 20.4213C121.753 20.4213 120.881 20.3282 119.878 20.1418C118.875 19.9554 117.92 19.712 117.009 19.4114L117.006 19.4084Z" fill="#625D5B"/>
<path d="M139.401 20.0245V0.390625H141.297V20.0245H139.401Z" fill="#625D5B"/>
<path d="M154.11 0.390625H157.845C159.812 0.390625 161.34 0.808428 162.427 1.63803C163.513 2.47063 164.057 3.63387 164.057 5.13076C164.057 6.29099 163.716 7.25285 163.039 8.01932C162.361 8.7858 161.382 9.29979 160.098 9.56129V9.72962C161.325 9.97309 162.328 10.5532 163.107 11.47C163.887 12.3867 164.472 13.5169 164.863 14.8635C165.215 16.0989 165.564 17.0547 165.908 17.737C166.251 18.4194 166.633 18.9093 167.051 19.2099C167.469 19.5105 167.964 19.7239 168.541 19.8561V20.0245H167.397C166.579 20.0245 165.908 19.8742 165.376 19.5766C164.848 19.279 164.397 18.774 164.024 18.0617C163.651 17.3523 163.299 16.3694 162.964 15.116C162.427 13.1893 161.71 11.8247 160.818 11.0221C159.925 10.2196 158.839 9.81678 157.558 9.81678H157.391V9.31181H157.558C160.549 9.31181 162.042 7.92915 162.042 5.16081C162.042 2.39248 160.639 1.06693 157.836 1.06693H155.997V20.0275H154.101V0.393629L154.11 0.390625Z" fill="#625D5B"/>
<path d="M177.564 20.0245V0.390625H186.06V1.76427L181.186 1.11803C180.332 1.00681 179.756 0.949702 179.457 0.949702V9.50418C179.699 9.50418 180.275 9.47713 181.186 9.42002L185.753 9.14048V10.43L181.186 10.1504C180.275 10.0933 179.699 10.0663 179.457 10.0663V19.4624C179.791 19.4624 180.377 19.4053 181.212 19.294L186.144 18.6478V20.0214H177.564V20.0245Z" fill="#625D5B"/>
<path d="M51.1559 19.5442C50.5725 19.4493 49.9891 19.3472 49.4021 19.2738L45.8733 18.9461L44.1088 18.7813C43.5201 18.7312 42.9296 18.6989 42.3409 18.6559L38.8049 18.416C38.2162 18.3694 37.6257 18.3497 37.0351 18.3228L35.2654 18.2458C32.9122 18.1187 30.5573 18.0972 28.2023 18.0488C28.2023 18.0488 28.2023 18.0488 28.2006 18.0488C28.2006 18.0488 28.2006 18.0488 28.1988 18.0488C25.8438 18.099 23.4871 18.1205 21.1357 18.2458L19.366 18.3228C18.7755 18.3497 18.185 18.3694 17.5962 18.416L14.0603 18.6559C13.4715 18.6989 12.881 18.7312 12.2923 18.7813L10.5279 18.9461L6.99901 19.2738C6.41205 19.3472 5.83043 19.4493 5.24525 19.5442L3.49506 19.8308C2.32826 20.0188 1.16324 20.214 0 20.4182C2.36027 20.2785 4.70988 20.06 7.06481 19.9221L10.5848 19.5944L12.3439 19.4314C12.9308 19.3831 13.5196 19.349 14.1065 19.3078L17.6336 19.0679C18.2205 19.0213 18.8093 19.0016 19.398 18.9765L21.1642 18.8995C23.5085 18.7724 25.8563 18.7527 28.2023 18.7025C30.5484 18.7527 32.8962 18.7724 35.2405 18.8995L37.0067 18.9765C37.5954 19.0034 38.1842 19.0231 38.7711 19.0679L42.2982 19.3078C42.8851 19.349 43.4739 19.3831 44.0608 19.4314L45.8199 19.5944L49.3399 19.9221C51.6948 20.06 54.0426 20.2767 56.4047 20.4182C55.2414 20.2158 54.0764 20.0188 52.9096 19.8308L51.1594 19.5442H51.1559Z" fill="#625D5B"/>
<path d="M12.1856 12.5114L13.4093 13.3173L12.3119 12.3449L11.5755 11.7055L13.2564 11.6106C13.966 11.539 14.6722 11.4261 15.3836 11.367L17.5145 11.1682L18.5799 11.0697C18.9356 11.0393 19.2913 11.0196 19.6471 10.9945L21.7814 10.8495C22.4929 10.7993 23.2061 10.7832 23.9176 10.7474C25.3423 10.6704 26.7688 10.6578 28.1953 10.6274H28.2024C29.6289 10.6578 31.0553 10.6704 32.48 10.7474C33.1915 10.7832 33.9048 10.7993 34.6162 10.8495L36.7506 10.9945C37.1063 11.0196 37.4621 11.0393 37.8178 11.0697L38.8832 11.1682L41.014 11.367C41.7255 11.4279 42.4298 11.539 43.1413 11.6106L44.8221 11.7055L44.0858 12.3449L42.9883 13.3173L44.212 12.5114L45.4269 11.6948L45.8146 11.4351L45.3362 11.3473L43.2196 10.9623C42.8656 10.9032 42.5081 10.8853 42.1524 10.8351C41.7966 10.7939 41.4409 10.7474 41.0834 10.7187L38.9437 10.5199L37.8729 10.4196C37.5154 10.3892 37.1579 10.3695 36.8004 10.3444L34.6553 10.1994C33.9403 10.1492 33.2235 10.1313 32.5085 10.0973C31.0767 10.0203 29.6431 10.0077 28.2113 9.97729H28.1917C26.7581 10.0077 25.3245 10.0203 23.8945 10.0973C23.1795 10.1331 22.4627 10.151 21.7477 10.1994L19.6026 10.3444C19.2451 10.3695 18.8876 10.3892 18.5301 10.4196L17.4593 10.5199L15.3196 10.7187C14.9621 10.7474 14.6064 10.7939 14.2506 10.8351C13.8949 10.8835 13.5374 10.9014 13.1834 10.9623L11.0668 11.3473L10.5884 11.4351L10.9761 11.6948L12.1909 12.5114H12.1856Z" fill="#625D5B"/>
<path d="M13.4967 8.27944L14.6244 9.01193L13.6212 8.11289L12.9791 7.54875L14.4857 7.47175C15.1366 7.40727 15.7841 7.3034 16.4368 7.24788L18.3916 7.06521L19.3698 6.97387L20.3481 6.90403L22.3064 6.7715C22.9592 6.72673 23.6137 6.71061 24.2665 6.67837C25.5738 6.60853 26.8829 6.59599 28.1902 6.56913H28.1991C29.5082 6.59599 30.8155 6.60853 32.1228 6.67837C32.7755 6.71061 33.4301 6.72673 34.0829 6.7715L36.0412 6.90403L37.0194 6.97387L37.9977 7.06521L39.9524 7.24788C40.6052 7.30161 41.2526 7.40727 41.9036 7.47175L43.4101 7.54875L42.768 8.11289L41.7649 9.01193L42.8925 8.27944L44.0113 7.53622L44.3991 7.27833L43.9188 7.18878L41.9765 6.82523C41.6528 6.76792 41.322 6.75538 40.9965 6.70882C40.6692 6.67121 40.3437 6.62823 40.0164 6.60136L38.0528 6.41869L37.071 6.32735L36.0874 6.25751L34.1184 6.12319C33.4621 6.07842 32.804 6.06051 32.1477 6.02827C30.8333 5.95664 29.5171 5.94589 28.2026 5.91724H28.1813C26.8651 5.94589 25.5507 5.95664 24.2362 6.02827C23.5799 6.06051 22.9218 6.07663 22.2655 6.12319L20.2965 6.25751L19.3129 6.32735L18.3311 6.41869L16.3675 6.60136C16.0402 6.62823 15.7129 6.67121 15.3874 6.70882C15.0619 6.75359 14.7329 6.76792 14.4074 6.82523L12.4651 7.18878L11.9849 7.27833L12.3726 7.53622L13.4914 8.27944H13.4967Z" fill="#625D5B"/>
<path d="M19.4957 5.24917C19.204 4.96084 18.9105 4.67608 18.6153 4.39312L19.421 4.37879C19.839 4.3376 20.2534 4.26955 20.6714 4.23552L21.9236 4.11911C22.3398 4.07792 22.7577 4.0421 23.1775 4.01703L24.4315 3.93106C24.8494 3.90241 25.2692 3.89166 25.6872 3.87017C26.5249 3.8254 27.3627 3.81824 28.2004 3.80033C29.0382 3.81824 29.8759 3.8254 30.7137 3.87017C31.1316 3.89166 31.5514 3.90062 31.9694 3.93106L33.2233 4.01703C33.6413 4.0421 34.0593 4.07792 34.4773 4.11911L35.7295 4.23552C36.1474 4.26955 36.5619 4.3376 36.9799 4.37879L37.7856 4.39312C37.4903 4.67608 37.1969 4.96084 36.9052 5.24917C37.405 4.95905 37.8994 4.66176 38.3921 4.36267L38.7994 4.11553L38.2978 4.00449L37.0563 3.73048C36.8482 3.68929 36.6366 3.68929 36.4267 3.65706C36.2168 3.63198 36.0069 3.60512 35.7971 3.58721L34.536 3.4708C34.1162 3.42961 33.6947 3.392 33.2731 3.36693L32.0085 3.28096C31.587 3.25231 31.1637 3.24156 30.7421 3.22007C29.899 3.1753 29.0542 3.16635 28.2093 3.14844H28.1951C27.3502 3.16635 26.5054 3.17351 25.6623 3.22007C25.2407 3.24156 24.8174 3.25052 24.3959 3.28096L23.1313 3.36693C22.7097 3.392 22.2882 3.42961 21.8684 3.4708L20.6073 3.58721C20.3975 3.60512 20.1876 3.63198 19.9777 3.65706C19.7696 3.68929 19.5562 3.68929 19.3481 3.73048L18.1066 4.00449L17.605 4.11553L18.0123 4.36267C18.505 4.66176 18.9994 4.95905 19.4992 5.24917H19.4957Z" fill="#625D5B"/>
<path d="M10.5812 15.588L12.3403 15.4251C12.9273 15.3767 13.516 15.3427 14.1029 15.3015L17.63 15.0615C18.217 15.0149 18.8057 14.9952 19.3944 14.9702L21.1606 14.8932C23.5049 14.766 25.8527 14.7463 28.1988 14.6962C30.5448 14.7445 32.8927 14.766 35.2369 14.8932L37.0031 14.9702C37.5919 14.997 38.1806 15.0167 38.7675 15.0615L42.2946 15.3015C42.8816 15.3427 43.4703 15.3767 44.0573 15.4251L45.8164 15.588L49.3363 15.9158C51.6912 16.0537 54.0391 16.2704 56.4011 16.4119C55.2379 16.2095 54.0729 16.0125 52.9061 15.8244L51.1559 15.5379C50.5725 15.443 49.9891 15.3409 49.4021 15.2675L45.8733 14.9397L44.1088 14.775C43.5201 14.7248 42.9296 14.6926 42.3409 14.6496L38.8049 14.4096C38.2162 14.3631 37.6256 14.3434 37.0351 14.3165L35.2654 14.2395C32.9122 14.1123 30.5573 14.0908 28.2023 14.0425C28.2023 14.0425 28.2023 14.0425 28.2006 14.0425C28.2006 14.0425 28.2006 14.0425 28.1988 14.0425C25.8438 14.0926 23.4871 14.1141 21.1357 14.2395L19.366 14.3165C18.7755 14.3434 18.185 14.3631 17.5962 14.4096L14.0603 14.6496C13.4715 14.6908 12.881 14.7248 12.2923 14.775L10.5279 14.9397L6.999 15.2675C6.41205 15.3409 5.83043 15.443 5.24525 15.5379L3.49506 15.8244C2.32826 16.0125 1.16324 16.2077 0 16.4119C2.36027 16.2722 4.70988 16.0537 7.06481 15.9158L10.5848 15.588H10.5812Z" fill="#625D5B"/>
<path d="M32.2366 0.773753C31.7884 0.734353 31.3402 0.680626 30.8902 0.653763C29.9955 0.585708 29.0991 0.54989 28.2008 0.537354C28.2008 0.537354 28.2008 0.537354 28.1991 0.537354C28.1991 0.537354 28.1991 0.537354 28.1973 0.537354C27.2991 0.54989 26.4026 0.585708 25.508 0.655553C25.058 0.682417 24.6097 0.736144 24.1615 0.775544C23.724 0.922399 23.29 1.07463 22.8613 1.2573C23.322 1.33431 23.7756 1.37192 24.2273 1.42385C24.6702 1.38624 25.1113 1.33252 25.5542 1.30565C26.4346 1.2376 27.3169 1.20357 28.1973 1.18924C29.0795 1.20178 29.9617 1.2376 30.8404 1.30565C31.2833 1.33252 31.7244 1.38445 32.1672 1.42385C32.619 1.37192 33.0726 1.33431 33.5333 1.2573C33.1064 1.07463 32.6724 0.922399 32.2331 0.775544L32.2366 0.773753Z" fill="#625D5B"/>
</svg>
